<svg version="1.1" id="Layer_1" xmlns="http://www.w3.org/2000/svg" xmlns:xlink="http://www.w3.org/1999/xlink" x="0px" y="0px"
	 width="100%" viewBox="0 0 500 500" enable-background="new 0 0 500 500" xml:space="preserve">
<path fill="#000000" opacity="1.000000" stroke="none" 
	d="
M327.000000,501.000000 
	C218.000031,501.000000 109.500053,501.000000 1.000058,501.000000 
	C1.000039,334.333405 1.000039,167.666794 1.000019,1.000148 
	C167.666565,1.000098 334.333130,1.000098 500.999756,1.000049 
	C500.999847,167.666519 500.999847,334.333038 500.999939,500.999786 
	C443.166656,501.000000 385.333344,501.000000 327.000000,501.000000 
M211.541977,206.099457 
	C211.314728,206.382675 211.087463,206.665909 209.956787,206.960144 
	C200.259781,207.646515 190.522552,207.985016 180.875214,209.100769 
	C166.380814,210.777100 151.846268,212.475143 137.551788,215.294525 
	C133.052414,216.181961 126.151016,216.300659 125.221199,223.631104 
	C124.767548,227.207458 124.060333,230.802628 124.104576,234.381409 
	C124.227318,244.308716 124.132896,254.289551 125.163811,264.140472 
	C126.196823,274.011566 127.556534,284.029480 130.393143,293.497650 
	C139.718826,324.625366 156.921066,350.605652 183.458725,369.845459 
	C192.194489,376.178894 201.466156,381.687531 213.793182,380.993042 
	C216.806320,381.287109 219.823792,381.871246 222.831879,381.826477 
	C238.227905,381.597443 253.621506,381.206299 269.933319,380.969879 
	C280.598969,381.828979 289.927612,378.740479 298.886871,372.796509 
	C311.616547,364.351105 322.733093,354.176697 331.869934,342.192841 
	C336.237183,336.464783 339.588562,334.277222 347.293976,334.472382 
	C359.778046,334.788635 371.881531,331.185944 382.530518,323.359894 
	C397.794312,312.142426 407.475525,298.240051 408.033875,278.737610 
	C408.545135,260.880920 396.619598,243.743118 375.224243,244.051376 
	C371.347809,244.107239 367.478485,244.656906 362.473633,245.072678 
	C362.305206,238.720871 362.092712,232.689987 362.005219,226.657288 
	C361.953369,223.082718 360.884552,220.541031 357.265411,218.901611 
	C349.692505,215.471207 341.963654,213.021469 333.639008,212.163559 
	C324.538025,211.225647 315.527527,209.272324 306.415955,208.611267 
	C296.358917,207.881577 286.231873,208.116531 275.716583,207.261444 
	C273.647858,206.885376 271.585144,206.230682 269.509247,206.185638 
	C263.350800,206.051971 257.187164,206.158524 250.086945,206.023727 
	C237.424637,206.056335 224.762329,206.088943 211.541977,206.099457 
M257.485199,177.923065 
	C257.594666,177.627594 257.704132,177.332108 257.959534,176.111130 
	C258.839447,163.918259 256.490387,152.891388 249.352859,142.398895 
	C240.191422,128.931213 238.865021,114.215126 246.846344,99.292534 
	C247.710236,97.677330 247.615509,95.549400 248.208298,92.347466 
	C238.613449,97.266708 232.378952,103.552979 228.140335,111.293716 
	C220.851410,124.605026 223.248123,138.197037 230.989761,150.144684 
	C237.655289,160.431564 242.098862,170.734848 240.995529,183.791397 
	C238.786392,189.302261 236.577255,194.813110 233.934814,201.404907 
	C235.698807,201.267990 237.459152,201.642303 238.582993,200.963257 
	C247.498611,195.576141 254.957291,188.917221 257.009155,178.010345 
	C257.009155,178.010345 256.998901,178.094269 257.485199,177.923065 
M209.408264,404.833344 
	C230.590347,404.880524 251.772446,404.935883 272.954529,404.937988 
	C273.639313,404.938049 274.324158,404.393311 275.939331,403.991791 
	C288.541748,403.631226 301.200317,403.885712 313.731293,402.742126 
	C327.044830,401.527100 340.257477,399.111481 353.476685,396.986786 
	C365.051544,395.126404 376.575287,392.932404 387.151611,387.485352 
	C393.370667,384.282379 393.705750,378.781067 387.925415,374.967987 
	C379.578735,369.461945 369.772552,368.248077 360.381409,366.102997 
	C350.651184,363.880432 340.675415,362.741974 330.818329,361.062927 
	C322.404083,359.629639 314.365784,363.213837 310.035858,370.510254 
	C311.935638,371.455017 313.919952,372.255890 315.685944,373.395203 
	C316.628601,374.003265 317.920471,375.354553 317.760223,376.087372 
	C317.518585,377.192535 316.316589,378.459076 315.213623,378.924530 
	C313.145660,379.797241 310.881622,380.284943 308.654877,380.688416 
	C296.803284,382.835846 285.011292,385.768250 273.058746,386.786102 
	C258.346252,388.039001 243.485504,388.167847 228.708527,387.854340 
	C216.567627,387.596710 204.384613,386.484680 192.356812,384.785004 
	C184.958206,383.739563 177.733307,381.124817 170.593658,378.728333 
	C166.939789,377.501892 166.955444,375.423431 170.707336,373.698578 
	C172.654007,372.803619 174.386765,371.443359 176.473480,370.131500 
	C170.935165,364.519684 165.971161,359.416351 157.537552,360.974274 
	C150.755859,362.227112 143.905197,363.220306 137.042572,363.897034 
	C123.937637,365.189301 111.448753,368.715729 99.540443,374.142731 
	C97.532707,375.057709 95.655243,378.006287 95.302208,380.263153 
	C95.008423,382.141144 96.499290,385.386536 98.145485,386.276184 
	C103.130669,388.970398 108.402466,391.554504 113.877487,392.833771 
	C124.953934,395.421844 136.205246,397.325104 147.445892,399.127563 
	C157.138168,400.681671 166.885269,402.094025 176.663696,402.857056 
	C187.395157,403.694489 198.190231,403.716827 209.408264,404.833344 
M199.011017,178.627609 
	C197.606491,185.253448 196.201965,191.879303 194.624176,199.322479 
	C196.554993,198.556656 198.781677,198.154724 200.376404,196.929947 
	C202.864990,195.018692 205.163498,192.738983 207.118484,190.278458 
	C211.553696,184.696320 214.231110,177.925125 212.630142,171.149368 
	C210.951797,164.046143 207.405197,157.298538 204.080017,150.695190 
	C200.976669,144.532349 198.581970,138.499451 200.766388,131.534012 
	C202.208511,126.935577 203.636734,122.332771 205.384674,116.726349 
	C203.274765,117.317017 201.512299,117.309418 200.522232,118.180115 
	C197.366943,120.954971 193.980225,123.699913 191.635437,127.111153 
	C187.631958,132.935501 184.828964,139.482010 186.994492,146.778671 
	C188.437073,151.639404 190.591843,156.289688 192.445663,161.027191 
	C194.626160,166.599518 196.825912,172.164307 199.011017,178.627609 
M282.856476,118.066620 
	C275.750305,123.165619 270.720215,129.907822 269.096558,138.455460 
	C267.368225,147.553772 270.551239,155.860016 275.799469,163.200760 
	C281.166565,170.707718 283.011414,178.546631 280.021332,187.447861 
	C279.018341,190.433685 278.573914,193.607117 277.532410,198.202972 
	C281.553680,196.129822 284.971558,195.388199 286.768921,193.270905 
	C296.431641,181.888458 298.033813,171.139633 290.306335,157.709198 
	C285.895294,150.042740 281.116974,142.376602 283.041718,132.917435 
	C283.876923,128.813080 285.428558,124.857796 286.577240,120.812775 
	C287.334229,118.147095 287.496887,115.900780 282.856476,118.066620 
z"/>
<path fill="#C87A57" opacity="1.000000" stroke="none" 
	d="
M212.981094,380.862366 
	C201.466156,381.687531 192.194489,376.178894 183.458725,369.845459 
	C156.921066,350.605652 139.718826,324.625366 130.393143,293.497650 
	C127.556534,284.029480 126.196823,274.011566 125.163811,264.140472 
	C124.132896,254.289551 124.227318,244.308716 124.104576,234.381409 
	C124.060333,230.802628 124.767548,227.207458 125.221199,223.631104 
	C126.151016,216.300659 133.052414,216.181961 137.551788,215.294525 
	C151.846268,212.475143 166.380814,210.777100 180.875214,209.100769 
	C190.522552,207.985016 200.259781,207.646515 210.711487,206.962952 
	C211.667831,206.957550 211.869492,206.949310 212.080200,206.942902 
	C212.089233,206.944733 212.117142,206.946732 212.469116,207.147797 
	C214.455139,207.562424 216.088928,207.959595 217.723221,207.961594 
	C237.193893,207.985580 256.664642,207.950745 276.135345,207.931320 
	C286.231873,208.116531 296.358917,207.881577 306.415955,208.611267 
	C315.527527,209.272324 324.538025,211.225647 333.639008,212.163559 
	C341.963654,213.021469 349.692505,215.471207 357.265411,218.901611 
	C360.884552,220.541031 361.953369,223.082718 362.005219,226.657288 
	C362.092712,232.689987 362.305206,238.720871 362.473633,245.072678 
	C367.478485,244.656906 371.347809,244.107239 375.224243,244.051376 
	C396.619598,243.743118 408.545135,260.880920 408.033875,278.737610 
	C407.475525,298.240051 397.794312,312.142426 382.530518,323.359894 
	C371.881531,331.185944 359.778046,334.788635 347.293976,334.472382 
	C339.588562,334.277222 336.237183,336.464783 331.869934,342.192841 
	C322.733093,354.176697 311.616547,364.351105 298.886871,372.796509 
	C289.927612,378.740479 280.598969,381.828979 269.096436,380.753479 
	C250.298920,380.465424 232.338348,380.389648 214.377670,380.345001 
	C213.912582,380.343842 213.446640,380.682281 212.981094,380.862366 
M285.500183,233.983276 
	C285.694366,233.980743 285.888519,233.978210 286.970795,234.010345 
	C296.626038,233.201431 306.530060,233.459259 315.866302,231.282288 
	C325.121368,229.124222 335.308960,231.468262 345.269714,225.487961 
	C338.665375,224.498169 333.568970,223.477478 328.422333,223.010757 
	C312.386017,221.556503 296.328827,220.333710 280.284973,218.959579 
	C278.196869,218.780731 276.139679,218.241364 273.310822,217.509384 
	C272.175079,217.325134 271.039642,216.982513 269.903595,216.980438 
	C253.364288,216.950317 236.824860,216.944443 220.285721,217.007645 
	C218.838989,217.013184 217.394272,217.543716 215.104752,217.953583 
	C213.686661,218.290192 212.282883,218.831696 210.848282,218.931870 
	C195.744202,219.986389 180.619797,220.786819 165.534073,222.051773 
	C158.034088,222.680649 150.602570,224.126129 142.246002,225.331131 
	C143.458389,226.314240 143.764297,226.776031 144.123215,226.821777 
	C151.240921,227.728912 157.601624,231.427078 165.412033,230.544647 
	C172.226837,229.774704 179.388855,232.023239 186.390213,232.990646 
	C188.615921,233.298172 190.818344,233.774246 193.615143,234.457886 
	C195.077789,234.369995 196.540436,234.282120 198.451080,234.043732 
	C198.451080,234.043732 198.919022,233.977493 199.499329,233.984329 
	C199.692764,233.982117 199.886185,233.979919 200.714905,234.027054 
	C201.134979,234.083969 201.555054,234.140884 202.739304,234.513870 
	C214.544067,234.669235 226.348816,234.824615 239.020599,234.994797 
	C243.326843,234.712402 247.633087,234.429993 252.695297,234.504944 
	C263.132294,234.402069 273.569275,234.299194 284.451813,234.044388 
	C284.451813,234.044388 284.917694,233.976898 285.500183,233.983276 
M372.618103,262.977051 
	C363.171722,263.216278 360.968628,265.398956 360.006073,274.993683 
	C358.583221,289.176697 353.734680,302.380463 348.137360,315.649536 
	C348.930847,315.764343 349.754425,316.118988 350.450928,315.949921 
	C368.548462,311.557312 383.163086,303.354218 388.260712,283.496704 
	C391.505157,270.858063 384.515259,261.674500 372.618103,262.977051 
z"/>
<path fill="#C87A58" opacity="1.000000" stroke="none" 
	d="
M208.957581,404.094330 
	C198.190231,403.716827 187.395157,403.694489 176.663696,402.857056 
	C166.885269,402.094025 157.138168,400.681671 147.445892,399.127563 
	C136.205246,397.325104 124.953934,395.421844 113.877487,392.833771 
	C108.402466,391.554504 103.130669,388.970398 98.145485,386.276184 
	C96.499290,385.386536 95.008423,382.141144 95.302208,380.263153 
	C95.655243,378.006287 97.532707,375.057709 99.540443,374.142731 
	C111.448753,368.715729 123.937637,365.189301 137.042572,363.897034 
	C143.905197,363.220306 150.755859,362.227112 157.537552,360.974274 
	C165.971161,359.416351 170.935165,364.519684 176.473480,370.131500 
	C174.386765,371.443359 172.654007,372.803619 170.707336,373.698578 
	C166.955444,375.423431 166.939789,377.501892 170.593658,378.728333 
	C177.733307,381.124817 184.958206,383.739563 192.356812,384.785004 
	C204.384613,386.484680 216.567627,387.596710 228.708527,387.854340 
	C243.485504,388.167847 258.346252,388.039001 273.058746,386.786102 
	C285.011292,385.768250 296.803284,382.835846 308.654877,380.688416 
	C310.881622,380.284943 313.145660,379.797241 315.213623,378.924530 
	C316.316589,378.459076 317.518585,377.192535 317.760223,376.087372 
	C317.920471,375.354553 316.628601,374.003265 315.685944,373.395203 
	C313.919952,372.255890 311.935638,371.455017 310.035858,370.510254 
	C314.365784,363.213837 322.404083,359.629639 330.818329,361.062927 
	C340.675415,362.741974 350.651184,363.880432 360.381409,366.102997 
	C369.772552,368.248077 379.578735,369.461945 387.925415,374.967987 
	C393.705750,378.781067 393.370667,384.282379 387.151611,387.485352 
	C376.575287,392.932404 365.051544,395.126404 353.476685,396.986786 
	C340.257477,399.111481 327.044830,401.527100 313.731293,402.742126 
	C301.200317,403.885712 288.541748,403.631226 275.007446,404.028320 
	C252.369568,404.074646 230.663574,404.084473 208.957581,404.094330 
z"/>
<path fill="#C67B59" opacity="1.000000" stroke="none" 
	d="
M241.165039,183.053726 
	C242.098862,170.734848 237.655289,160.431564 230.989761,150.144684 
	C223.248123,138.197037 220.851410,124.605026 228.140335,111.293716 
	C232.378952,103.552979 238.613449,97.266708 248.208298,92.347466 
	C247.615509,95.549400 247.710236,97.677330 246.846344,99.292534 
	C238.865021,114.215126 240.191422,128.931213 249.352859,142.398895 
	C256.490387,152.891388 258.839447,163.918259 257.740936,176.741974 
	C257.337433,177.605743 257.162964,177.846222 256.998901,178.094269 
	C256.998901,178.094269 257.009155,178.010345 256.741821,178.160751 
	C255.289505,180.261551 254.005569,182.159470 252.938354,184.172302 
	C249.867157,189.964813 242.129425,197.353577 237.465698,198.608551 
	C238.220184,196.597519 239.137573,194.807129 239.549942,192.907135 
	C240.254929,189.658829 240.643555,186.341858 241.165039,183.053726 
z"/>
<path fill="#C47C5C" opacity="1.000000" stroke="none" 
	d="
M199.014160,178.179993 
	C196.825912,172.164307 194.626160,166.599518 192.445663,161.027191 
	C190.591843,156.289688 188.437073,151.639404 186.994492,146.778671 
	C184.828964,139.482010 187.631958,132.935501 191.635437,127.111153 
	C193.980225,123.699913 197.366943,120.954971 200.522232,118.180115 
	C201.512299,117.309418 203.274765,117.317017 205.384674,116.726349 
	C203.636734,122.332771 202.208511,126.935577 200.766388,131.534012 
	C198.581970,138.499451 200.976669,144.532349 204.080017,150.695190 
	C207.405197,157.298538 210.951797,164.046143 212.630142,171.149368 
	C214.231110,177.925125 211.553696,184.696320 207.118484,190.278458 
	C205.163498,192.738983 202.864990,195.018692 200.376404,196.929947 
	C198.781677,198.154724 196.554993,198.556656 194.624176,199.322479 
	C196.201965,191.879303 197.606491,185.253448 199.014160,178.179993 
z"/>
<path fill="#C57C5B" opacity="1.000000" stroke="none" 
	d="
M283.221985,117.948303 
	C287.496887,115.900780 287.334229,118.147095 286.577240,120.812775 
	C285.428558,124.857796 283.876923,128.813080 283.041718,132.917435 
	C281.116974,142.376602 285.895294,150.042740 290.306335,157.709198 
	C298.033813,171.139633 296.431641,181.888458 286.768921,193.270905 
	C284.971558,195.388199 281.553680,196.129822 277.532410,198.202972 
	C278.573914,193.607117 279.018341,190.433685 280.021332,187.447861 
	C283.011414,178.546631 281.166565,170.707718 275.799469,163.200760 
	C270.551239,155.860016 267.368225,147.553772 269.096558,138.455460 
	C270.720215,129.907822 275.750305,123.165619 283.221985,117.948303 
z"/>
<path fill="#B4795E" opacity="1.000000" stroke="none" 
	d="
M213.387146,380.927704 
	C213.446640,380.682281 213.912582,380.343842 214.377670,380.345001 
	C232.338348,380.389648 250.298920,380.465424 268.637756,380.704468 
	C253.621506,381.206299 238.227905,381.597443 222.831879,381.826477 
	C219.823792,381.871246 216.806320,381.287109 213.387146,380.927704 
z"/>
<path fill="#BD836A" opacity="1.000000" stroke="none" 
	d="
M241.080292,183.422562 
	C240.643555,186.341858 240.254929,189.658829 239.549942,192.907135 
	C239.137573,194.807129 238.220184,196.597519 237.465698,198.608551 
	C242.129425,197.353577 249.867157,189.964813 252.938354,184.172302 
	C254.005569,182.159470 255.289505,180.261551 256.783783,178.165924 
	C254.957291,188.917221 247.498611,195.576141 238.582993,200.963257 
	C237.459152,201.642303 235.698807,201.267990 233.934814,201.404907 
	C236.577255,194.813110 238.786392,189.302261 241.080292,183.422562 
z"/>
<path fill="#B4795E" opacity="1.000000" stroke="none" 
	d="
M275.925964,207.596375 
	C256.664642,207.950745 237.193893,207.985580 217.723221,207.961594 
	C216.088928,207.959595 214.455139,207.562424 212.927124,207.165268 
	C222.459335,206.978836 231.886276,207.042725 241.311325,206.936432 
	C244.551865,206.899902 247.787613,206.438477 251.025558,206.171143 
	C257.187164,206.158524 263.350800,206.051971 269.509247,206.185638 
	C271.585144,206.230682 273.647858,206.885376 275.925964,207.596375 
z"/>
<path fill="#D5A189" opacity="1.000000" stroke="none" 
	d="
M209.182922,404.463837 
	C230.663574,404.084473 252.369568,404.074646 274.542267,404.083679 
	C274.324158,404.393311 273.639313,404.938049 272.954529,404.937988 
	C251.772446,404.935883 230.590347,404.880524 209.182922,404.463837 
z"/>
<path fill="#F5D7C7" opacity="1.000000" stroke="none" 
	d="
M250.556244,206.097443 
	C247.787613,206.438477 244.551865,206.899902 241.311325,206.936432 
	C231.886276,207.042725 222.459335,206.978836 212.575134,206.964203 
	C212.117142,206.946732 212.089233,206.944733 212.066345,206.737762 
	C212.043472,206.530777 212.100021,206.121567 212.100021,206.121567 
	C224.762329,206.088943 237.424637,206.056335 250.556244,206.097443 
z"/>
<path fill="#B4795E" opacity="1.000000" stroke="none" 
	d="
M211.820999,206.110504 
	C212.100021,206.121567 212.043472,206.530777 212.057312,206.735931 
	C211.869492,206.949310 211.667831,206.957550 211.163193,206.957458 
	C211.087463,206.665909 211.314728,206.382675 211.820999,206.110504 
z"/>
<path fill="#BD836A" opacity="1.000000" stroke="none" 
	d="
M257.242065,178.008667 
	C257.162964,177.846222 257.337433,177.605743 257.667969,177.204742 
	C257.704132,177.332108 257.594666,177.627594 257.242065,178.008667 
z"/>
<path fill="#000000" opacity="1.000000" stroke="none" 
	d="
M274.068146,217.868988 
	C276.139679,218.241364 278.196869,218.780731 280.284973,218.959579 
	C296.328827,220.333710 312.386017,221.556503 328.422333,223.010757 
	C333.568970,223.477478 338.665375,224.498169 345.269714,225.487961 
	C335.308960,231.468262 325.121368,229.124222 315.866302,231.282288 
	C306.530060,233.459259 296.626038,233.201431 286.436340,233.754227 
	C285.573853,233.657715 285.245758,233.817307 284.917694,233.976898 
	C284.917694,233.976898 284.451813,234.044388 283.763123,234.050751 
	C272.696075,234.087265 262.317688,234.117416 251.939331,234.147583 
	C247.633087,234.429993 243.326843,234.712402 238.334915,234.622635 
	C225.757858,234.232910 213.866501,234.215347 201.975128,234.197784 
	C201.555054,234.140884 201.134979,234.083969 200.307983,233.763504 
	C199.573715,233.659134 199.246368,233.818314 198.919022,233.977493 
	C198.919022,233.977493 198.451080,234.043732 197.815659,234.048584 
	C195.797302,234.093353 194.414368,234.133286 193.031433,234.173203 
	C190.818344,233.774246 188.615921,233.298172 186.390213,232.990646 
	C179.388855,232.023239 172.226837,229.774704 165.412033,230.544647 
	C157.601624,231.427078 151.240921,227.728912 144.123215,226.821777 
	C143.764297,226.776031 143.458389,226.314240 142.246002,225.331131 
	C150.602570,224.126129 158.034088,222.680649 165.534073,222.051773 
	C180.619797,220.786819 195.744202,219.986389 210.848282,218.931870 
	C212.282883,218.831696 213.686661,218.290192 215.995880,217.971558 
	C235.947403,217.949356 255.007767,217.909164 274.068146,217.868988 
z"/>
<path fill="#000000" opacity="1.000000" stroke="none" 
	d="
M373.069427,262.975647 
	C384.515259,261.674500 391.505157,270.858063 388.260712,283.496704 
	C383.163086,303.354218 368.548462,311.557312 350.450928,315.949921 
	C349.754425,316.118988 348.930847,315.764343 348.137360,315.649536 
	C353.734680,302.380463 358.583221,289.176697 360.006073,274.993683 
	C360.968628,265.398956 363.171722,263.216278 373.069427,262.975647 
z"/>
<path fill="#BD836A" opacity="1.000000" stroke="none" 
	d="
M273.689484,217.689178 
	C255.007767,217.909164 235.947403,217.949356 216.417816,217.909958 
	C217.394272,217.543716 218.838989,217.013184 220.285721,217.007645 
	C236.824860,216.944443 253.364288,216.950317 269.903595,216.980438 
	C271.039642,216.982513 272.175079,217.325134 273.689484,217.689178 
z"/>
<path fill="#BD836A" opacity="1.000000" stroke="none" 
	d="
M202.357208,234.355835 
	C213.866501,234.215347 225.757858,234.232910 237.901398,234.615234 
	C226.348816,234.824615 214.544067,234.669235 202.357208,234.355835 
z"/>
<path fill="#BD836A" opacity="1.000000" stroke="none" 
	d="
M252.317322,234.326263 
	C262.317688,234.117416 272.696075,234.087265 283.540344,234.126709 
	C273.569275,234.299194 263.132294,234.402069 252.317322,234.326263 
z"/>
<path fill="#BD836A" opacity="1.000000" stroke="none" 
	d="
M193.323288,234.315552 
	C194.414368,234.133286 195.797302,234.093353 197.591660,234.123840 
	C196.540436,234.282120 195.077789,234.369995 193.323288,234.315552 
z"/>
<path fill="#BD836A" opacity="1.000000" stroke="none" 
	d="
M285.208923,233.980087 
	C285.245758,233.817307 285.573853,233.657715 285.992310,233.736908 
	C285.888519,233.978210 285.694366,233.980743 285.208923,233.980087 
z"/>
<path fill="#BD836A" opacity="1.000000" stroke="none" 
	d="
M199.209167,233.980911 
	C199.246368,233.818314 199.573715,233.659134 199.990341,233.738831 
	C199.886185,233.979919 199.692764,233.982117 199.209167,233.980911 
z"/>
</svg>