<svg width="24" height="25" viewBox="0 0 24 25" fill="none" xmlns="http://www.w3.org/2000/svg">
<path d="M11.8221 5.84532C11.8497 5.84455 11.8774 5.84414 11.905 5.84408C12.8416 5.84251 13.8218 5.9626 14.713 6.2705C20.0319 8.10833 22.6886 13.9665 22.6719 19.4898C21.5603 19.4525 20.2517 19.4855 19.1222 19.4855L2.52401 19.4854C2.15944 19.4848 1.65527 19.4605 1.31015 19.4937C1.41905 13.7933 4.07666 7.50195 10.0656 6.04783C10.6538 5.90505 11.2218 5.87293 11.8221 5.84532Z" fill="#ED923D"/>
<path d="M1.39688 20.8658C2.84456 20.8301 4.45023 20.8635 5.91049 20.8635L19.9903 20.863C20.8845 20.863 21.829 20.8314 22.7047 20.8814C23.9236 20.951 24.0319 21.921 23.994 22.9019C23.9628 23.7094 24.0898 24.3375 23.2254 24.8075C22.9996 24.9302 22.8801 24.9512 22.6291 24.9812C21.1799 25.0219 19.5185 24.984 18.0566 24.9839L3.93264 24.9848C3.06361 24.9858 2.17327 25.0071 1.30768 24.9679C0.631578 24.8849 -0.0089959 24.368 0.00958095 23.6155C0.0408338 22.3514 -0.305663 20.9591 1.39688 20.8658Z" fill="#ED923D"/>
<path d="M10.6827 0.661213C10.6847 0.302142 10.9643 0.0116213 11.3151 0.00546523C11.7533 -0.00222616 12.2366 -0.00209273 12.6747 0.00774031C13.0309 0.0157364 13.3088 0.318641 13.311 0.683321C13.314 1.16595 13.3204 1.64914 13.3071 2.13142C13.7814 1.86404 13.8844 1.57592 14.2517 1.21468C14.3284 1.13917 14.4097 1.06237 14.4931 0.98521C14.7907 0.709681 15.2931 0.74179 15.5983 1.0085C15.6706 1.07164 15.7396 1.13566 15.8007 1.2049C16.0464 1.48317 16.2454 1.6931 16.4691 1.90475C16.7222 2.14422 16.7654 2.52748 16.5291 2.78431C16.0803 3.27198 15.4163 3.92912 15.1974 4.09496C15.6613 4.1252 16.1714 4.10821 16.6753 4.10813C17.0299 4.10807 17.3081 4.40667 17.31 4.7696C17.3126 5.25198 17.3156 5.7432 17.3085 6.22399C17.3031 6.593 17.0041 6.88265 16.6435 6.87999C15.5291 6.87178 14.4073 6.87798 13.2956 6.87726L8.80945 6.87908C8.42483 6.8791 7.88291 6.86301 7.39916 6.86118C7.01522 6.85973 6.6907 6.54405 6.69008 6.15107L6.6879 4.76382C6.68733 4.40144 6.96389 4.102 7.31791 4.09718C7.82863 4.09024 8.37778 4.10085 8.8284 4.11158C8.42956 3.73445 7.92649 3.21033 7.57201 2.83413C7.32422 2.57116 7.3286 2.15561 7.5788 1.89503C7.84716 1.61555 8.1888 1.2605 8.46467 0.976311C8.72234 0.710865 9.13907 0.717642 9.4128 0.965682C9.51028 1.05401 9.60791 1.14246 9.70395 1.23583C10.075 1.59659 10.2301 1.89564 10.6795 2.1712C10.6851 1.66779 10.68 1.16457 10.6827 0.661213Z" fill="#ED923D"/>
</svg>
