<svg width="29" height="30" viewBox="0 0 29 30" fill="none" xmlns="http://www.w3.org/2000/svg">
<g opacity="0.5">
<path d="M23.607 22.4096C23.5311 19.7459 23.6956 17.0692 23.607 14.4055C23.569 13.2042 23.5184 11.559 23.3285 10.3969C22.607 5.74854 18.6702 5.7616 14.9613 5.63102C12.4296 5.53962 9.8726 5.70937 7.32825 5.63102V3.75078C7.32825 1.59633 9.07512 0.499519 10.9233 0.30366C14.8474 -0.114172 21.3412 -0.0880576 25.2906 0.30366C26.8349 0.460347 28.1261 1.13933 28.5691 2.77148C28.797 3.58103 28.8476 5.20013 28.8729 6.08803C29.0248 9.92686 29.1008 15.0584 28.7464 18.8319C28.3919 22.6055 27.3792 22.4096 25.4045 22.4096H23.5817H23.607Z" fill="#004D64"/>
<path d="M7.58142 7.49821C10.9486 7.3807 15.455 7.26318 18.7462 7.73324C22.164 8.21636 21.6196 12.0944 21.7209 14.6797C21.8602 18.4141 22.0753 23.0625 21.5817 26.7577C21.1133 30.2962 17.3664 29.7217 14.8474 29.8261C11.2271 29.9698 6.72065 30.1917 3.13831 29.6825C-0.444034 29.1733 0.264839 25.23 0.163571 22.6055C0.0243282 18.9103 -0.178207 14.301 0.302814 10.6581C0.771177 7.11955 4.98644 7.58961 7.56876 7.49821H7.58142ZM14.8853 13.3348C14.5689 13.3609 14.1132 13.6351 13.9106 13.8963L10.0625 19.6806C8.99917 18.7144 7.78396 15.9854 6.04975 17.1084C4.31554 18.2313 4.51808 18.7275 4.94846 19.759C5.37885 20.7905 6.93584 22.2921 7.41686 22.8013C8.51815 24.0026 10.0118 25.8045 11.6448 24.1723C12.4169 23.402 13.3537 21.8351 14.0119 20.895C14.6702 19.9548 16.6449 17.2781 17.0499 16.2205C17.455 15.1628 17.2905 15.2412 16.9993 14.745C16.7082 14.2488 15.5056 13.2826 14.898 13.3348H14.8853Z" fill="#004D64"/>
</g>
</svg>
