<svg width="23" height="30" viewBox="0 0 23 30" fill="none" xmlns="http://www.w3.org/2000/svg">
<path opacity="0.5" d="M10.952 0.0156673C14.8439 -0.0462036 21.0266 -0.157571 22.2771 4.7426C23.2004 8.33111 23.0602 16.4486 22.8264 20.3217C22.8031 20.7548 22.6862 22.0169 22.5576 22.3387C22.1369 23.4029 20.6409 23.0811 20.6409 24.6031C20.6409 26.286 22.8264 25.8034 22.6862 27.7338C22.5576 29.5776 19.8695 29.7384 18.5605 29.8003C14.5518 30.023 7.78476 30.1715 3.92791 29.6147C0.0476963 29.0826 0.176258 23.9349 0.0710715 20.829C-0.0691773 16.3125 -0.0224277 10.9668 0.398319 6.48736C0.959314 0.287899 6.24202 0.0899123 10.952 0.0156673ZM14.9141 12.8601C14.9491 12.7982 15.2296 12.7116 15.3465 12.5878C17.1464 10.7317 17.9528 9.37054 14.7855 8.72708C14.4466 8.65284 13.8856 8.8137 13.6285 8.64047C13.3713 8.46723 12.9389 6.47499 12.3078 5.90577C10.7767 4.53224 9.70149 7.46492 9.39762 8.68996C6.65108 8.75183 4.72266 9.39529 7.15364 12.1795C7.3757 12.4393 7.99513 12.7363 8.08863 12.9838C8.31069 13.5901 7.01339 16.4733 8.43925 16.9188C9.86511 17.3643 10.9404 15.7804 11.5247 15.8051C12.1091 15.8299 13.0558 16.795 13.5817 16.9188C16.4802 17.5622 14.5635 13.4788 14.9024 12.8724L14.9141 12.8601ZM17.684 22.8831C15.3699 23.0193 13.0558 22.6975 10.7417 22.7099C8.42756 22.7223 9.91186 22.8831 9.51449 22.8955C8.45094 22.9079 4.73434 22.6852 4.06816 23.0687C3.05136 23.6751 3.1098 26.1004 4.6876 26.3355C5.99658 26.5335 8.52106 26.4964 9.95861 26.5211C12.5415 26.5583 15.1011 26.4098 17.6723 26.3479C17.4619 25.1724 17.4619 24.0587 17.6723 22.8831H17.684Z" fill="#004D64"/>
</svg>
