<svg width="71" height="71" viewBox="0 0 71 71" fill="none" xmlns="http://www.w3.org/2000/svg">
<circle cx="35.5" cy="35.5" r="35.5" fill="url(#paint0_linear_259_75)"/>
<path d="M52.2122 48.0872V49.1112C52.019 49.2721 51.9002 49.5647 51.6922 49.6963C51.1424 50.062 47.859 50.223 46.9527 50.2668C40.5491 50.6618 34.1159 50.6033 27.7124 50.4131C24.6518 50.3254 20.9374 50.4131 17.966 49.9596C15.7968 49.6232 17.0002 47.3997 17.4757 46.1416C19.0654 41.9286 22.9135 34.4242 27.5638 33.0638C32.0359 31.7472 35.2748 35.5067 37.4885 38.7543C38.6623 37.8327 40.2371 36.7502 41.7823 36.7063C47.0864 36.5454 50.459 44.0936 52.1973 48.0726L52.2122 48.0872Z" fill="white"/>
<path d="M41.3366 31.9667C44.5695 31.9667 47.1904 29.3862 47.1904 26.2031C47.1904 23.0199 44.5695 20.4395 41.3366 20.4395C38.1036 20.4395 35.4828 23.0199 35.4828 26.2031C35.4828 29.3862 38.1036 31.9667 41.3366 31.9667Z" fill="white"/>
<defs>
<linearGradient id="paint0_linear_259_75" x1="35.5" y1="0" x2="35.5" y2="71" gradientUnits="userSpaceOnUse">
<stop stop-color="#A5D7FF"/>
<stop offset="1" stop-color="#5363DA"/>
</linearGradient>
</defs>
</svg>
