<svg width="30" height="30" viewBox="0 0 30 30" fill="none" xmlns="http://www.w3.org/2000/svg">
<g opacity="0.5">
<path d="M29.9937 14.3079C29.6871 7.65127 24.6162 1.60677 18.038 0.408068C18.0763 2.52492 18.7022 5.30488 18.038 7.33246C17.476 9.054 15.1896 10.444 13.478 10.7883C12.801 10.9286 10.2719 11.0306 9.95256 11.7064C9.41609 12.8286 10.6423 15.6086 10.6168 16.9476C10.5912 18.1718 9.60769 20.5564 8.80298 21.4873C7.24465 23.2471 4.35791 22.6605 2.26311 22.9538C5.81405 28.6412 12.9543 31.3319 19.4175 29.3554C19.1365 28.0929 19.3792 25.0834 18.5489 24.2163C18.1913 23.8464 17.5015 23.5021 17.08 23.1323C15.3684 21.6276 14.1805 19.5235 15.2662 17.2664C17.2077 13.2239 21.2313 14.4736 24.8078 15.0347C26.4811 15.2898 28.1543 15.5958 29.7893 16.0039C30.0703 15.9529 29.9937 14.6139 29.9809 14.3079H29.9937Z" fill="#004D64"/>
<path d="M7.10414 20.5436C7.75558 20.0718 8.63693 18.1463 8.73911 17.3556C9.02012 15.2643 6.73372 11.7957 9.00735 10.1379C10.9744 8.70969 13.4396 9.58959 15.4195 7.90631C16.7096 6.80963 16.5563 5.48341 16.5052 3.90215C16.4924 3.3283 16.4286 2.44841 16.3647 1.87456C16.3264 1.54301 16.1986 0.471828 16.0837 0.24229C15.8793 -0.140273 14.6148 0.0382563 14.1805 0.0637605C3.7448 0.752374 -2.88448 11.2601 1.24126 20.9262C2.72295 20.8625 5.91624 21.398 7.10414 20.5436Z" fill="#004D64"/>
<path d="M18.8938 16.3099C17.5271 16.5395 16.403 18.4396 16.799 19.7403C17.4632 21.8954 19.839 22.2014 20.5671 23.9867C21.1163 25.3257 20.8098 27.1875 21.2185 28.603C25.6636 26.6392 28.7164 22.5202 29.7382 17.8147C28.5248 17.5597 27.2985 17.3046 26.0723 17.0878C24.2457 16.769 20.5926 16.0294 18.8938 16.3227V16.3099Z" fill="#004D64"/>
</g>
</svg>
