<svg version="1.1" id="Layer_1" xmlns="http://www.w3.org/2000/svg" xmlns:xlink="http://www.w3.org/1999/xlink" x="0px" y="0px"
	 width="100%" viewBox="0 0 500 500" enable-background="new 0 0 500 500" xml:space="preserve">
<path fill="#000000" opacity="1.000000" stroke="none" 
	d="
M276.000000,501.000000 
	C184.000015,501.000000 92.500046,501.000000 1.000049,501.000000 
	C1.000033,334.333405 1.000033,167.666794 1.000016,1.000139 
	C167.666565,1.000092 334.333130,1.000092 500.999756,1.000046 
	C500.999847,167.666519 500.999847,334.333038 500.999939,500.999786 
	C426.166656,501.000000 351.333344,501.000000 276.000000,501.000000 
M147.032959,217.267395 
	C146.373459,216.797531 145.713974,216.327682 145.051102,215.924622 
	C145.051102,215.924622 145.116898,215.912598 144.835922,215.287201 
	C142.537338,213.920807 140.238754,212.554428 137.309204,210.824921 
	C133.588745,210.219574 129.877335,209.550369 126.145981,209.021988 
	C118.035866,207.873566 112.653831,212.285553 107.936592,218.050034 
	C101.153145,226.339401 102.733681,235.892014 105.465958,244.606857 
	C109.529877,257.569061 114.351700,270.459930 120.435905,282.585907 
	C131.207611,304.054199 147.943512,320.518250 167.524216,334.219452 
	C180.907135,343.583923 195.447296,350.100708 211.266052,354.316254 
	C222.700439,357.363434 234.137283,359.932098 245.933701,359.859680 
	C255.129532,359.803253 264.336639,358.884460 273.507385,358.017303 
	C291.055298,356.358063 307.266937,350.055237 322.523163,341.806702 
	C339.503845,332.625732 354.136597,320.248688 366.426758,305.177185 
	C376.635620,292.657990 385.498413,279.375153 390.521790,263.919373 
	C393.674805,254.218399 396.766418,244.421951 398.755920,234.443130 
	C400.246582,226.966553 396.288910,220.401901 391.349243,214.989395 
	C385.034271,208.069946 375.850861,207.113037 368.061157,208.975983 
	C358.157623,211.344467 351.424927,218.633987 348.727478,229.518646 
	C346.396057,238.926346 343.352509,248.468750 338.756317,256.938171 
	C329.629883,273.755585 316.379761,287.222717 299.819458,296.931549 
	C285.048859,305.591125 268.553986,309.175201 251.656052,309.800507 
	C242.531616,310.138092 233.359940,308.754059 224.342819,306.134766 
	C205.656357,300.706879 189.797562,290.972229 176.939789,276.545441 
	C171.825363,270.806915 167.710815,264.177277 163.035217,257.317627 
	C162.694824,256.843506 162.354446,256.369415 161.944656,255.461700 
	C161.944656,255.461700 161.804047,255.045700 161.885315,254.500549 
	C161.590973,254.302063 161.296616,254.103592 161.024734,253.976013 
	C161.024734,253.976013 161.095551,253.953339 160.989487,253.206161 
	C160.311722,251.395157 159.594360,249.597855 158.962906,247.770844 
	C155.985458,239.155869 153.031555,230.532761 150.024017,221.964371 
	C150.024017,221.964371 150.078735,222.006042 149.941971,221.458542 
	C149.625458,221.282104 149.308945,221.105667 149.007233,220.997086 
	C149.007233,220.997086 149.074463,220.979675 148.960464,220.334885 
	C148.322357,219.527008 147.684265,218.719147 147.036026,217.975769 
	C147.036026,217.975769 147.101044,217.969833 147.032959,217.267395 
M290.049164,186.166962 
	C292.597076,188.755035 294.737335,192.062119 297.775848,193.784943 
	C304.583527,197.644897 313.510529,196.214890 318.967560,191.651627 
	C326.046722,185.731888 327.740570,178.276642 325.019287,169.936584 
	C322.610870,162.555313 316.986938,158.099533 309.306305,157.113556 
	C301.611328,156.125748 295.059540,159.205673 290.374146,165.221207 
	C286.046051,170.778061 286.144470,180.425613 290.049164,186.166962 
M193.647522,158.001663 
	C190.501587,157.007462 187.730820,157.761490 184.995865,159.509933 
	C178.463913,163.685760 175.808441,169.598068 175.953278,177.270187 
	C176.154404,187.922760 183.561417,193.819168 192.304291,195.884033 
	C199.989975,197.699203 210.581406,191.357803 213.622726,183.955292 
	C218.748825,171.478455 207.578598,155.092438 193.647522,158.001663 
z"/>
<path fill="#CC7B58" opacity="1.000000" stroke="none" 
	d="
M161.804047,255.045700 
	C161.804047,255.045700 161.944656,255.461700 162.054230,255.968170 
	C162.489532,256.967529 162.815292,257.460449 163.141052,257.953339 
	C167.710815,264.177277 171.825363,270.806915 176.939789,276.545441 
	C189.797562,290.972229 205.656357,300.706879 224.342819,306.134766 
	C233.359940,308.754059 242.531616,310.138092 251.656052,309.800507 
	C268.553986,309.175201 285.048859,305.591125 299.819458,296.931549 
	C316.379761,287.222717 329.629883,273.755585 338.756317,256.938171 
	C343.352509,248.468750 346.396057,238.926346 348.727478,229.518646 
	C351.424927,218.633987 358.157623,211.344467 368.061157,208.975983 
	C375.850861,207.113037 385.034271,208.069946 391.349243,214.989395 
	C396.288910,220.401901 400.246582,226.966553 398.755920,234.443130 
	C396.766418,244.421951 393.674805,254.218399 390.521790,263.919373 
	C385.498413,279.375153 376.635620,292.657990 366.426758,305.177185 
	C354.136597,320.248688 339.503845,332.625732 322.523163,341.806702 
	C307.266937,350.055237 291.055298,356.358063 273.507385,358.017303 
	C264.336639,358.884460 255.129532,359.803253 245.933701,359.859680 
	C234.137283,359.932098 222.700439,357.363434 211.266052,354.316254 
	C195.447296,350.100708 180.907135,343.583923 167.524216,334.219452 
	C147.943512,320.518250 131.207611,304.054199 120.435905,282.585907 
	C114.351700,270.459930 109.529877,257.569061 105.465958,244.606857 
	C102.733681,235.892014 101.153145,226.339401 107.936592,218.050034 
	C112.653831,212.285553 118.035866,207.873566 126.145981,209.021988 
	C129.877335,209.550369 133.588745,210.219574 137.654724,211.396194 
	C138.220169,217.165039 142.084900,215.787720 145.116898,215.912598 
	C145.116898,215.912598 145.051102,215.924622 145.153564,216.186035 
	C145.871017,216.954895 146.486038,217.462372 147.101044,217.969833 
	C147.101044,217.969833 147.036026,217.975769 147.080322,218.272308 
	C147.774582,219.372452 148.424530,220.176056 149.074463,220.979675 
	C149.074463,220.979675 149.007233,220.997086 149.167603,221.156250 
	C149.578217,221.545624 149.828476,221.775833 150.078735,222.006042 
	C150.078735,222.006042 150.024017,221.964371 150.021454,222.398407 
	C150.304214,226.104218 150.102982,229.513367 150.979523,232.618225 
	C152.636566,238.487747 154.736633,244.254425 157.043015,249.904480 
	C157.708191,251.533981 159.707748,252.618805 161.095551,253.953339 
	C161.095551,253.953339 161.024734,253.976013 161.136978,254.137833 
	C161.411179,254.565430 161.596130,254.814117 161.804047,255.045700 
z"/>
<path fill="#C97C5A" opacity="1.000000" stroke="none" 
	d="
M289.945831,185.796417 
	C286.144470,180.425613 286.046051,170.778061 290.374146,165.221207 
	C295.059540,159.205673 301.611328,156.125748 309.306305,157.113556 
	C316.986938,158.099533 322.610870,162.555313 325.019287,169.936584 
	C327.740570,178.276642 326.046722,185.731888 318.967560,191.651627 
	C313.510529,196.214890 304.583527,197.644897 297.775848,193.784943 
	C294.737335,192.062119 292.597076,188.755035 289.945831,185.796417 
z"/>
<path fill="#C97C5B" opacity="1.000000" stroke="none" 
	d="
M194.054489,158.001678 
	C207.578598,155.092438 218.748825,171.478455 213.622726,183.955292 
	C210.581406,191.357803 199.989975,197.699203 192.304291,195.884033 
	C183.561417,193.819168 176.154404,187.922760 175.953278,177.270187 
	C175.808441,169.598068 178.463913,163.685760 184.995865,159.509933 
	C187.730820,157.761490 190.501587,157.007462 194.054489,158.001678 
z"/>
<path fill="#CB866B" opacity="1.000000" stroke="none" 
	d="
M161.042511,253.579742 
	C159.707748,252.618805 157.708191,251.533981 157.043015,249.904480 
	C154.736633,244.254425 152.636566,238.487747 150.979523,232.618225 
	C150.102982,229.513367 150.304214,226.104218 150.044067,222.372513 
	C153.031555,230.532761 155.985458,239.155869 158.962906,247.770844 
	C159.594360,249.597855 160.311722,251.395157 161.042511,253.579742 
z"/>
<path fill="#CB866B" opacity="1.000000" stroke="none" 
	d="
M144.976410,215.599899 
	C142.084900,215.787720 138.220169,217.165039 137.970200,211.577759 
	C140.238754,212.554428 142.537338,213.920807 144.976410,215.599899 
z"/>
<path fill="#CB866B" opacity="1.000000" stroke="none" 
	d="
M149.017456,220.657288 
	C148.424530,220.176056 147.774582,219.372452 147.085388,218.240051 
	C147.684265,218.719147 148.322357,219.527008 149.017456,220.657288 
z"/>
<path fill="#CB866B" opacity="1.000000" stroke="none" 
	d="
M147.067001,217.618622 
	C146.486038,217.462372 145.871017,216.954895 145.155243,216.152618 
	C145.713974,216.327682 146.373459,216.797531 147.067001,217.618622 
z"/>
<path fill="#CB866B" opacity="1.000000" stroke="none" 
	d="
M163.088135,257.635498 
	C162.815292,257.460449 162.489532,256.967529 162.088928,256.184967 
	C162.354446,256.369415 162.694824,256.843506 163.088135,257.635498 
z"/>
<path fill="#CB866B" opacity="1.000000" stroke="none" 
	d="
M150.010345,221.732300 
	C149.828476,221.775833 149.578217,221.545624 149.160187,221.122314 
	C149.308945,221.105667 149.625458,221.282104 150.010345,221.732300 
z"/>
<path fill="#CB866B" opacity="1.000000" stroke="none" 
	d="
M161.844681,254.773132 
	C161.596130,254.814117 161.411179,254.565430 161.125748,254.102386 
	C161.296616,254.103592 161.590973,254.302063 161.844681,254.773132 
z"/>
</svg>