<svg version="1.1" id="Layer_1" xmlns="http://www.w3.org/2000/svg" xmlns:xlink="http://www.w3.org/1999/xlink" x="0px" y="0px"
	 width="100%" viewBox="0 0 500 500" enable-background="new 0 0 500 500" xml:space="preserve">
<path fill="#000000" opacity="1.000000" stroke="none" 
	d="
M239.000000,501.000000 
	C159.333359,501.000000 80.166702,501.000000 1.000042,501.000000 
	C1.000028,334.333405 1.000028,167.666779 1.000014,1.000132 
	C167.666565,1.000088 334.333130,1.000088 500.999756,1.000044 
	C500.999847,167.666519 500.999847,334.333038 500.999939,500.999786 
	C413.833344,501.000000 326.666656,501.000000 239.000000,501.000000 
M236.748734,148.969925 
	C239.748993,146.869705 242.919205,144.967529 245.685135,142.594238 
	C247.317474,141.193634 248.309555,139.046860 249.589584,137.235672 
	C247.439972,136.163116 245.319855,134.235413 243.135834,134.160049 
	C231.101807,133.744858 219.408371,135.993042 207.917969,139.504395 
	C190.482803,144.832443 175.780487,154.768875 162.639175,166.993469 
	C150.737198,178.065155 141.473816,191.175446 134.896973,206.170135 
	C127.777542,222.401932 123.146538,239.086929 124.039017,257.930603 
	C123.224739,276.956909 126.542709,295.318512 135.211502,312.199738 
	C140.844208,323.168640 147.368423,334.007416 155.306305,343.366760 
	C162.334137,351.653076 171.484177,358.344513 180.389130,364.783203 
	C192.204147,373.325897 205.740005,379.244843 219.952866,381.630920 
	C233.541153,383.912140 247.612259,383.334442 261.474365,383.939514 
	C262.744904,383.994965 264.065552,383.611481 265.317627,383.267090 
	C274.035889,380.869202 282.826477,378.691223 291.431793,375.936310 
	C303.175934,372.176514 313.669006,365.905121 323.186035,358.163116 
	C327.603027,354.569946 330.896790,349.519287 335.491302,346.237549 
	C344.112305,340.079803 348.783630,331.179871 353.636230,322.364838 
	C354.302399,321.154694 353.422424,318.393341 352.337708,317.159485 
	C351.583527,316.301636 348.941040,316.204193 347.674561,316.835327 
	C334.971710,323.165924 321.668274,326.616119 307.489868,328.314667 
	C290.573486,330.341217 274.979126,326.974396 259.881866,320.315033 
	C248.732544,315.397095 238.935913,308.429474 230.108414,299.731171 
	C218.331329,288.126465 210.211090,274.390991 205.298615,259.046936 
	C199.661194,241.438507 198.997238,223.116623 203.090118,204.963760 
	C207.524704,185.295349 217.338913,168.372345 230.945709,153.605164 
	C232.476440,151.943893 234.325912,150.576324 236.748734,148.969925 
M316.502197,249.145706 
	C321.656036,244.261841 326.898285,239.465668 331.895020,234.426025 
	C332.999451,233.312149 334.044556,231.076035 333.643524,229.831406 
	C333.240631,228.580765 331.062744,227.261185 329.552856,227.116257 
	C322.062653,226.397293 314.541656,225.843307 307.020752,225.649323 
	C300.850250,225.490173 297.809509,223.197311 295.892639,217.480957 
	C293.622864,210.712280 290.966461,204.049194 288.003235,197.556870 
	C287.391022,196.215485 284.756042,195.463242 282.930054,195.143326 
	C281.938324,194.969559 280.062439,196.010391 279.655334,196.961411 
	C277.246307,202.588501 274.792419,208.241974 273.031677,214.090683 
	C270.165802,223.610275 267.305847,225.890549 257.207855,226.046463 
	C251.265640,226.138199 245.307953,226.481522 239.405197,227.141129 
	C237.534302,227.350189 235.142059,228.556305 234.280304,230.050980 
	C233.746887,230.976166 235.267517,233.685867 236.522049,234.936432 
	C241.614182,240.012421 246.556519,245.388382 252.328918,249.588989 
	C257.820496,253.585251 258.150909,257.699219 256.312103,263.604980 
	C254.290619,270.097595 252.996613,276.880249 252.077042,283.630737 
	C251.430038,288.380524 254.037537,289.911621 258.473511,288.074493 
	C259.970978,287.454315 261.398224,286.648712 262.815033,285.852234 
	C269.191101,282.267853 275.540649,278.636078 281.932648,275.080536 
	C282.714722,274.645477 283.908234,274.103546 284.547791,274.398590 
	C288.216766,276.091095 291.803528,277.970245 295.365662,279.883850 
	C299.795197,282.263428 304.108582,284.866791 308.592865,287.134766 
	C312.908051,289.317169 317.574005,287.520721 316.839417,284.069794 
	C315.495270,277.755371 314.084991,271.402618 311.975861,265.317688 
	C309.726440,258.828217 310.644073,253.785782 316.502197,249.145706 
z"/>
<path fill="#C97B59" opacity="1.000000" stroke="none" 
	d="
M236.027588,149.072540 
	C234.325912,150.576324 232.476440,151.943893 230.945709,153.605164 
	C217.338913,168.372345 207.524704,185.295349 203.090118,204.963760 
	C198.997238,223.116623 199.661194,241.438507 205.298615,259.046936 
	C210.211090,274.390991 218.331329,288.126465 230.108414,299.731171 
	C238.935913,308.429474 248.732544,315.397095 259.881866,320.315033 
	C274.979126,326.974396 290.573486,330.341217 307.489868,328.314667 
	C321.668274,326.616119 334.971710,323.165924 347.674561,316.835327 
	C348.941040,316.204193 351.583527,316.301636 352.337708,317.159485 
	C353.422424,318.393341 354.302399,321.154694 353.636230,322.364838 
	C348.783630,331.179871 344.112305,340.079803 335.491302,346.237549 
	C330.896790,349.519287 327.603027,354.569946 323.186035,358.163116 
	C313.669006,365.905121 303.175934,372.176514 291.431793,375.936310 
	C282.826477,378.691223 274.035889,380.869202 265.317627,383.267090 
	C264.065552,383.611481 262.744904,383.994965 261.474365,383.939514 
	C247.612259,383.334442 233.541153,383.912140 219.952866,381.630920 
	C205.740005,379.244843 192.204147,373.325897 180.389130,364.783203 
	C171.484177,358.344513 162.334137,351.653076 155.306305,343.366760 
	C147.368423,334.007416 140.844208,323.168640 135.211502,312.199738 
	C126.542709,295.318512 123.224739,276.956909 124.404053,257.239075 
	C125.178268,254.823090 125.653580,253.111313 125.985931,251.372208 
	C128.201599,239.778427 129.545654,227.930817 132.867493,216.665359 
	C135.213959,208.707703 139.854080,201.317154 144.119400,194.054688 
	C157.723495,170.891251 178.080673,155.275406 201.763947,143.535477 
	C202.342667,143.248596 203.062790,143.262833 203.692017,143.059418 
	C208.494827,141.506882 213.249695,139.785706 218.106506,138.428497 
	C220.789413,137.678757 223.697998,136.945236 226.404663,137.213867 
	C236.241028,138.190186 238.474152,141.149963 236.027588,149.072540 
M212.523575,142.495911 
	C212.523575,142.495911 212.486755,142.507401 212.523575,142.495911 
z"/>
<path fill="#C77D5C" opacity="1.000000" stroke="none" 
	d="
M316.232849,249.404694 
	C310.644073,253.785782 309.726440,258.828217 311.975861,265.317688 
	C314.084991,271.402618 315.495270,277.755371 316.839417,284.069794 
	C317.574005,287.520721 312.908051,289.317169 308.592865,287.134766 
	C304.108582,284.866791 299.795197,282.263428 295.365662,279.883850 
	C291.803528,277.970245 288.216766,276.091095 284.547791,274.398590 
	C283.908234,274.103546 282.714722,274.645477 281.932648,275.080536 
	C275.540649,278.636078 269.191101,282.267853 262.815033,285.852234 
	C261.398224,286.648712 259.970978,287.454315 258.473511,288.074493 
	C254.037537,289.911621 251.430038,288.380524 252.077042,283.630737 
	C252.996613,276.880249 254.290619,270.097595 256.312103,263.604980 
	C258.150909,257.699219 257.820496,253.585251 252.328918,249.588989 
	C246.556519,245.388382 241.614182,240.012421 236.522049,234.936432 
	C235.267517,233.685867 233.746887,230.976166 234.280304,230.050980 
	C235.142059,228.556305 237.534302,227.350189 239.405197,227.141129 
	C245.307953,226.481522 251.265640,226.138199 257.207855,226.046463 
	C267.305847,225.890549 270.165802,223.610275 273.031677,214.090683 
	C274.792419,208.241974 277.246307,202.588501 279.655334,196.961411 
	C280.062439,196.010391 281.938324,194.969559 282.930054,195.143326 
	C284.756042,195.463242 287.391022,196.215485 288.003235,197.556870 
	C290.966461,204.049194 293.622864,210.712280 295.892639,217.480957 
	C297.809509,223.197311 300.850250,225.490173 307.020752,225.649323 
	C314.541656,225.843307 322.062653,226.397293 329.552856,227.116257 
	C331.062744,227.261185 333.240631,228.580765 333.643524,229.831406 
	C334.044556,231.076035 332.999451,233.312149 331.895020,234.426025 
	C326.898285,239.465668 321.656036,244.261841 316.232849,249.404694 
z"/>
<path fill="#C58063" opacity="1.000000" stroke="none" 
	d="
M236.388153,149.021240 
	C238.474152,141.149963 236.241028,138.190186 226.404663,137.213867 
	C223.697998,136.945236 220.789413,137.678757 218.106506,138.428497 
	C213.249695,139.785706 208.494827,141.506882 203.692017,143.059418 
	C203.062790,143.262833 202.342667,143.248596 201.763947,143.535477 
	C178.080673,155.275406 157.723495,170.891251 144.119400,194.054688 
	C139.854080,201.317154 135.213959,208.707703 132.867493,216.665359 
	C129.545654,227.930817 128.201599,239.778427 125.985931,251.372208 
	C125.653580,253.111313 125.178268,254.823090 124.471611,256.775208 
	C123.146538,239.086929 127.777542,222.401932 134.896973,206.170135 
	C141.473816,191.175446 150.737198,178.065155 162.639175,166.993469 
	C175.780487,154.768875 190.482803,144.832443 207.917969,139.504395 
	C219.408371,135.993042 231.101807,133.744858 243.135834,134.160049 
	C245.319855,134.235413 247.439972,136.163116 249.589569,137.235657 
	C248.309555,139.046860 247.317474,141.193634 245.685135,142.594238 
	C242.919205,144.967529 239.748993,146.869705 236.388153,149.021240 
z"/>
<path fill="#C58063" opacity="1.000000" stroke="none" 
	d="
M212.505157,142.501648 
	C212.486755,142.507401 212.523575,142.495911 212.505157,142.501648 
z"/>
</svg>